<?xml version="1.0" standalone="no"?><!DOCTYPE svg PUBLIC "-//W3C//DTD SVG 1.1//EN" "http://www.w3.org/Graphics/SVG/1.1/DTD/svg11.dtd"><svg t="1768961426650" class="icon" viewBox="0 0 1616 1024" version="1.1" xmlns="http://www.w3.org/2000/svg" p-id="3871" xmlns:xlink="http://www.w3.org/1999/xlink" width="315.625" height="200"><path d="M1445.456842 242.526316H171.385263a68.446316 68.446316 0 0 0-68.446316 68.176842v401.515789A68.446316 68.446316 0 0 0 171.385263 781.473684h1274.071579a68.446316 68.446316 0 0 0 68.446316-68.176842V311.242105A68.446316 68.446316 0 0 0 1445.456842 242.526316z" fill="#F1F2F5" p-id="3872"></path><path d="M167.882105 327.410526m5.389474 0l136.892632 0q5.389474 0 5.389473 5.389474l0 31.258947q0 5.389474-5.389473 5.389474l-136.892632 0q-5.389474 0-5.389474-5.389474l0-31.258947q0-5.389474 5.389474-5.389474Z" fill="#00ADFD" p-id="3873"></path></svg>