<?xml version="1.0" standalone="no"?><!DOCTYPE svg PUBLIC "-//W3C//DTD SVG 1.1//EN" "http://www.w3.org/Graphics/SVG/1.1/DTD/svg11.dtd"><svg t="1768961480569" class="icon" viewBox="0 0 1575 1024" version="1.1" xmlns="http://www.w3.org/2000/svg" p-id="5228" xmlns:xlink="http://www.w3.org/1999/xlink" width="307.6171875" height="200"><path d="M100.300644 287.773577m59.865307 0l1254.808324 0q59.865306 0 59.865306 59.865306l0 302.477336q0 59.865306-59.865306 59.865306l-1254.808324 0q-59.865306 0-59.865307-59.865306l0-302.477336q0-59.865306 59.865307-59.865306Z" fill="#F1F2F5" p-id="5229"></path><path d="M467.106928 437.174275m12.603223 0l693.439796 0q12.603222 0 12.603222 12.603222l0 97.937541q0 12.603222-12.603222 12.603222l-693.439796 0q-12.603222 0-12.603223-12.603222l0-97.937541q0-12.603222 12.603223-12.603222Z" fill="#D7DBE2" p-id="5230"></path><path d="M297.751128 573.18405A74.043931 74.043931 0 1 1 371.795059 498.877551a74.306498 74.306498 0 0 1-74.043931 74.306499z m0-23.105908a13.916058 13.916058 0 1 0-13.916058-13.916058 14.441192 14.441192 0 0 0 13.916058 15.228894z m0-101.876047a14.441192 14.441192 0 0 0-13.916058 13.916058V498.877551a13.916058 13.916058 0 0 0 27.832116 0v-36.759398a14.441192 14.441192 0 0 0-13.916058-13.916058z" fill="#00ADFD" p-id="5231"></path></svg>