<?xml version="1.0" standalone="no"?><!DOCTYPE svg PUBLIC "-//W3C//DTD SVG 1.1//EN" "http://www.w3.org/Graphics/SVG/1.1/DTD/svg11.dtd"><svg t="1768961487088" class="icon" viewBox="0 0 1520 1024" version="1.1" xmlns="http://www.w3.org/2000/svg" p-id="5528" xmlns:xlink="http://www.w3.org/1999/xlink" width="296.875" height="200"><path d="M90.338966 84.030379m62.581183 0l782.517131 0q62.581183 0 62.581183 62.581183l0 665.429756q0 62.581183-62.581183 62.581183l-782.517131 0q-62.581183 0-62.581183-62.581183l0-665.429756q0-62.581183 62.581183-62.581183Z" fill="#F1F2F5" p-id="5529"></path><path d="M187.743549 229.632567m14.888265 0l289.942659 0q14.888265 0 14.888265 14.888265l0 59.553061q0 14.888265-14.888265 14.888266l-289.942659 0q-14.888265 0-14.888265-14.888266l0-59.553061q0-14.888265 14.888265-14.888265Z" fill="#E3E6EB" p-id="5530"></path><path d="M187.743549 409.553468m31.795279 0l256.128632 0q31.795278 0 31.795278 31.795278l0 256.128632q0 31.795278-31.795278 31.795279l-256.128632 0q-31.795278 0-31.795279-31.795279l0-256.128632q0-31.795278 31.795279-31.795278Z" fill="#E3E6EB" p-id="5531"></path><path d="M398.702698 594.268895v-72.422579a3.280465 3.280465 0 0 0-3.532808-3.280465h-95.133492a3.280465 3.280465 0 0 0-3.532809 3.280465V580.390004l25.234348-26.496066c1.766404-1.514061 2.271091-2.271091 4.037496-2.271091s2.523435 0 3.785152 2.523435l31.290591 40.879644 18.168731-17.159357c0-1.261717 2.271091-2.018748 3.532809-1.514061s2.018748 0 3.532808 2.271091l13.626548 14.888266z m0 15.645296l-17.4117-19.935135-18.421074 17.4117a6.813274 6.813274 0 0 1-4.037496 1.514061c-1.261717 0-2.271091 0-3.280465-2.271091l-31.542935-40.627301-27.000752 29.776531v21.196852a3.280465 3.280465 0 0 0 3.532809 3.280466h95.133491a3.280465 3.280465 0 0 0 3.532809-3.280466v-7.317961z m-98.6663-100.937392h95.133492a13.626548 13.626548 0 0 1 13.626547 13.626548v95.385835a13.626548 13.626548 0 0 1-13.626547 13.626548h-95.133492a13.626548 13.626548 0 0 1-13.626548-13.626548v-96.142866a13.626548 13.626548 0 0 1 13.626548-13.626548z m66.366335 61.319466a18.673418 18.673418 0 1 1 18.673417-18.673418 18.673418 18.673418 0 0 1-18.673417 17.916387z m0-10.346083a8.074991 8.074991 0 0 0 8.327335-8.327335 8.327335 8.327335 0 0 0-8.327335-8.579678 8.579678 8.579678 0 0 0-8.579679 8.579678 8.327335 8.327335 0 0 0 8.579679 7.570304z" fill="#BDC4CF" p-id="5532"></path><path d="M829.957705 409.553468h-19.178104a6.56093 6.56093 0 0 0-6.308587 6.56093 6.308587 6.308587 0 0 0 6.308587 6.308587h19.178104a6.308587 6.308587 0 0 0 6.308587-6.308587 6.56093 6.56093 0 0 0-6.308587-6.56093z m-50.468696 0h-19.178104a6.56093 6.56093 0 0 0-6.308587 6.56093 6.308587 6.308587 0 0 0 6.308587 6.308587h19.178104a6.308587 6.308587 0 0 0 6.308587-6.308587 6.56093 6.56093 0 0 0-6.813274-6.56093z m-50.468696 0h-19.935135a6.56093 6.56093 0 0 0-6.56093 6.56093 6.56093 6.56093 0 0 0 6.56093 6.308587h18.925761a6.56093 6.56093 0 0 0 6.560931-6.308587 6.56093 6.56093 0 0 0-6.560931-6.56093z m-50.468696 0h-19.178104a6.56093 6.56093 0 0 0-6.308587 6.56093 6.308587 6.308587 0 0 0 6.308587 6.308587h19.178104a6.308587 6.308587 0 0 0 6.308587-6.308587 6.56093 6.56093 0 0 0-7.570304-6.56093z m-50.468696 0a34.8234 34.8234 0 0 0-17.4117 4.289839 6.56093 6.56093 0 0 0-2.271091 8.832022l5.551557 3.028122h3.280465a20.187478 20.187478 0 0 1 10.093739-2.775779h1.514061a6.308587 6.308587 0 0 0 6.308587-6.308587 6.56093 6.56093 0 0 0-8.832022-7.065617z m-35.075743 31.290591h12.617174-12.617174v18.421074a6.308587 6.308587 0 1 0 12.617174 0v-17.664043z m0 0z m12.617174 0z m-6.308587 44.412453a6.308587 6.308587 0 0 0-6.308587 6.308587v19.178104a6.308587 6.308587 0 0 0 12.617174 0v-19.178104a6.308587 6.308587 0 0 0-6.308587-6.056244z m0 50.468696a6.308587 6.308587 0 0 0-6.308587 6.308587v18.925761a6.308587 6.308587 0 1 0 12.617174 0v-18.925761a6.308587 6.308587 0 0 0-6.308587-5.551557z m0 50.468696a6.56093 6.56093 0 0 0-6.308587 6.56093v18.925761a6.308587 6.308587 0 0 0 12.617174 0v-18.925761a6.56093 6.56093 0 0 0-6.308587-5.551556z m0 50.468696a6.308587 6.308587 0 0 0-6.308587 6.308587v19.178104a6.308587 6.308587 0 0 0 12.617174 0v-19.178104a6.308587 6.308587 0 0 0-6.308587-4.794526z m0 50.468696a6.308587 6.308587 0 0 0-6.308587 6.308587v2.018748a33.309339 33.309339 0 0 0 4.037495 12.869517l5.551557 3.028122h3.280465a6.308587 6.308587 0 0 0 2.271092-8.579679 19.430448 19.430448 0 0 1-2.775779-9.841395v-2.018748a6.308587 6.308587 0 0 0-6.056243-1.766404z m25.234348 25.234348z m0 2.775778z m0 0l-1.261718 12.617174z m0 6.308587z m0 0z m18.925761-6.308587h-17.916387v12.617174h17.916387a6.308587 6.308587 0 0 0 0-12.617174z m50.468696 0h-19.178105a6.308587 6.308587 0 1 0 0 12.617174h19.178105a6.308587 6.308587 0 1 0 0-12.617174z m50.468696 0h-19.178105a6.308587 6.308587 0 0 0 0 12.617174h19.178105a6.308587 6.308587 0 0 0 0-12.617174z m50.468696 0h-18.925761a6.308587 6.308587 0 1 0 0 12.617174h18.925761a6.308587 6.308587 0 1 0 0-12.617174z m50.468696 0h-19.178105a6.308587 6.308587 0 0 0 0 12.617174h19.178105a6.308587 6.308587 0 0 0 0-12.617174z m46.935887-3.280465h-3.028122a19.935135 19.935135 0 0 1-9.336709 2.523435h-1.766404a6.308587 6.308587 0 0 0 0 12.617174h10.598426l3.785152-1.261718h4.037496a6.56093 6.56093 0 0 0 2.271091-8.832022z m12.869517-39.617927a6.308587 6.308587 0 0 0-6.308587 6.308587v18.421074a6.813274 6.813274 0 0 0 6.308587 6.813274 6.056244 6.056244 0 0 0 6.056244-5.551556V681.327396a6.56093 6.56093 0 0 0-5.04687-7.570305z m0-50.468696a6.308587 6.308587 0 0 0-6.308587 6.308587v19.178105a6.308587 6.308587 0 0 0 6.308587 6.308587 6.56093 6.56093 0 0 0 6.560931-6.308587v-19.178105a6.56093 6.56093 0 0 0-5.551557-5.299213z m0-50.468696a6.308587 6.308587 0 0 0-6.308587 6.308587v18.925761a6.56093 6.56093 0 0 0 6.308587 6.560931 6.56093 6.56093 0 0 0 6.560931-6.560931v-18.925761a6.56093 6.56093 0 0 0-5.551557-5.551556z m0-50.468696a6.308587 6.308587 0 0 0-6.308587 6.308587v19.178105a6.308587 6.308587 0 0 0 6.308587 6.308587 6.56093 6.56093 0 0 0 6.560931-6.308587v-18.925761a6.56093 6.56093 0 0 0-5.551557-6.308587z m0-50.468695a6.308587 6.308587 0 0 0-6.308587 6.308587v19.178104a6.308587 6.308587 0 0 0 6.308587 6.308587 6.56093 6.56093 0 0 0 6.560931-6.308587v-19.178104a6.56093 6.56093 0 0 0-5.551557-6.560931z m-3.028121-47.188231h-3.028122a6.308587 6.308587 0 0 0-2.523435 8.579678 19.682791 19.682791 0 0 1 2.271091 9.336709v3.028122a6.308587 6.308587 0 0 0 6.308587 6.308587 6.56093 6.56093 0 0 0 6.560931-6.308587v-2.523435a28.26247 28.26247 0 0 0-3.532809-10.093739z m-22.206227-13.374205h-19.178104a6.56093 6.56093 0 0 0-6.308587 6.560931 6.308587 6.308587 0 0 0 6.308587 6.308587H883.20218a6.813274 6.813274 0 0 0 6.56093-6.056244 6.308587 6.308587 0 0 0-5.299213-6.56093h-2.775778z" fill="#D7DBE2" p-id="5533"></path><path d="M1104.002725 409.553468m31.795278 0l256.128632 0q31.795278 0 31.795279 31.795278l0 256.128632q0 31.795278-31.795279 31.795279l-256.128632 0q-31.795278 0-31.795278-31.795279l0-256.128632q0-31.795278 31.795278-31.795278Z" fill="#E3E6EB" p-id="5534"></path><path d="M1314.70953 594.268895v-72.422579a3.028122 3.028122 0 0 0-3.280465-3.280465h-95.385835a3.028122 3.028122 0 0 0-3.280466 3.280465V580.390004l23.720287-25.234348c1.514061-1.514061 2.271091-2.271091 4.037496-2.271092s2.271091 0 3.785152 2.523435l31.290592 40.879644 17.916387-17.159357c1.514061-1.261717 2.523435-2.018748 3.785152-1.514061s2.018748 0 3.532809 2.271092l13.374204 14.888265z m0 15.645296l-17.159356-19.935135-18.421074 17.4117a7.317961 7.317961 0 0 1-4.037496 1.514061 3.532809 3.532809 0 0 1-3.532809-2.271091l-31.290591-40.627301-27.253096 29.776531v21.196852a3.028122 3.028122 0 0 0 3.280465 3.280466H1312.186095a3.028122 3.028122 0 0 0 3.280466-3.280466v-7.317961z m-98.6663-100.937392H1312.186095a13.626548 13.626548 0 0 1 13.626548 13.626548v95.385835A13.626548 13.626548 0 0 1 1312.186095 630.8587h-96.142865a13.878891 13.878891 0 0 1-13.626548-13.626548v-95.385836a13.626548 13.626548 0 0 1 13.626548-13.626548z m66.366335 61.319466a18.673418 18.673418 0 1 1 18.925761-18.673418 18.925761 18.925761 0 0 1-18.925761 17.916387z m0-10.346083a8.327335 8.327335 0 0 0 8.579678-8.327335 8.579678 8.579678 0 0 0-8.579678-8.579678 8.327335 8.327335 0 0 0-8.327335 8.579678 8.074991 8.074991 0 0 0 8.327335 7.570304z" fill="#BDC4CF" p-id="5535"></path><path d="M1384.356331 731.796092a17.4117 17.4117 0 0 0-10.598426 2.018748V731.796092a16.149983 16.149983 0 0 0-12.869518-16.149983 16.65467 16.65467 0 0 0-13.121861 3.280465l-1.514061 1.514061a17.664044 17.664044 0 0 0-8.832022-5.299213 16.907013 16.907013 0 0 0-10.598426 2.018748v-29.271844a16.149983 16.149983 0 0 0-13.121861-16.149983 15.897639 15.897639 0 0 0-18.421074 12.617174v88.824905l-11.6078-19.430448a18.673418 18.673418 0 0 0-21.953883-9.336708 15.140609 15.140609 0 0 0-8.832021 8.832021 20.187478 20.187478 0 0 0 2.018747 16.65467l22.710914 37.599179c2.018748 5.04687 15.392952 35.075744 33.309339 35.075743h58.796031c27.757783 0 27.757783-41.889018 27.757783-43.655422v-50.468696a16.402326 16.402326 0 0 0-13.121861-16.654669z" fill="#00ADFD" p-id="5536"></path><path d="M747.946074 564.744708v-36.842148a4.794526 4.794526 0 0 1 9.589053 0v36.842148h36.842148a4.794526 4.794526 0 1 1 0 9.589052H757.03044v36.842148a4.794526 4.794526 0 1 1-9.589053 0v-36.842148h-36.337461a4.794526 4.794526 0 0 1 0-9.589052z" fill="#D7DBE2" p-id="5537"></path></svg>