<?xml version="1.0" standalone="no"?><!DOCTYPE svg PUBLIC "-//W3C//DTD SVG 1.1//EN" "http://www.w3.org/Graphics/SVG/1.1/DTD/svg11.dtd"><svg t="1768961475380" class="icon" viewBox="0 0 1518 1024" version="1.1" xmlns="http://www.w3.org/2000/svg" p-id="4927" xmlns:xlink="http://www.w3.org/1999/xlink" width="296.484375" height="200"><path d="M96.68577 210.835723m57.707737 0l1209.584538 0q57.707737 0 57.707737 57.707737l0 424.455591q0 57.707737-57.707737 57.707737l-1209.584538 0q-57.707737 0-57.707737-57.707737l0-424.455591q0-57.707737 57.707737-57.707737Z" fill="#F1F2F5" p-id="4928"></path><path d="M416.609364 348.271254m12.148997 0l272.593126 0q12.148997 0 12.148997 12.148998l0 77.449857q0 12.148997-12.148997 12.148997l-272.593126 0q-12.148997 0-12.148997-12.148997l0-77.449857q0-12.148997 12.148997-12.148998Z" fill="#00ADFD" p-id="4929"></path><path d="M416.609364 521.900673m12.148997 0l759.565432 0q12.148997 0 12.148998 12.148998l0 77.449857q0 12.148997-12.148998 12.148997l-759.565432 0q-12.148997 0-12.148997-12.148997l0-77.449857q0-12.148997 12.148997-12.148998Z" fill="#D7DBE2" p-id="4930"></path><path d="M276.642792 338.14709a61.251194 61.251194 0 1 0 61.251194 61.251195 61.504299 61.504299 0 0 0-61.251194-61.251195z m8.352435 25.310411a6.580707 6.580707 0 0 1 7.593123 7.340019 9.87106 9.87106 0 0 1-10.630372 9.364852c-5.56829 0-8.352436-2.784145-8.352436-7.593123a10.377268 10.377268 0 0 1 11.389685-9.87106z m-15.186246 75.931233c-4.049666 0-7.086915-2.531041-4.30277-13.414518l4.555874-19.235912v-4.30277a27.335244 27.335244 0 0 0-9.617956 4.30277l-2.024833-3.290354a53.151863 53.151863 0 0 1 25.310411-13.161413c3.796562 0 4.808978 4.808978 2.784145 12.148997l-5.315187 20.248329v4.808978a21.513849 21.513849 0 0 0 9.364853-4.555874l2.277936 3.037249a47.330468 47.330468 0 0 1-23.032473 12.402101z" fill="#00ADFD" p-id="4931"></path><path d="M1307.535829 317.898761l25.310411-25.310411a3.796562 3.796562 0 0 1 5.821394 0 4.30277 4.30277 0 0 1 0 5.821395l-25.310411 25.310411 25.310411 25.310411a4.049666 4.049666 0 0 1-5.821394 5.821394l-25.310411-25.310411-25.310411 25.310411a4.30277 4.30277 0 0 1-5.821395 0 3.796562 3.796562 0 0 1 0-5.821394l25.310411-25.310411-25.310411-25.310411a4.049666 4.049666 0 0 1 5.821395-5.821395z" fill="#BDC4CF" p-id="4932"></path></svg>