<?xml version="1.0" standalone="no"?><!DOCTYPE svg PUBLIC "-//W3C//DTD SVG 1.1//EN" "http://www.w3.org/Graphics/SVG/1.1/DTD/svg11.dtd"><svg t="1768961458714" class="icon" viewBox="0 0 1616 1024" version="1.1" xmlns="http://www.w3.org/2000/svg" p-id="4777" xmlns:xlink="http://www.w3.org/1999/xlink" width="315.625" height="200"><path d="M1326.08 212.884211H290.762105A49.313684 49.313684 0 0 0 242.526316 262.197895V512a49.313684 49.313684 0 0 0 49.313684 49.313684H754.526316l55.781052 76.261053 53.894737-76.261053h461.877895A49.313684 49.313684 0 0 0 1374.315789 512V262.197895a49.313684 49.313684 0 0 0-48.235789-49.313684z" fill="#F1F2F5" p-id="4778"></path><path d="M494.753684 684.463158m12.934737 0l601.465263 0q12.934737 0 12.934737 12.934737l0 100.513684q0 12.934737-12.934737 12.934737l-601.465263 0q-12.934737 0-12.934737-12.934737l0-100.513684q0-12.934737 12.934737-12.934737Z" fill="#00ADFD" p-id="4779"></path><path d="M341.423158 326.602105m12.934737 0l908.395789 0q12.934737 0 12.934737 12.934737l0 100.513684q0 12.934737-12.934737 12.934737l-908.395789 0q-12.934737 0-12.934737-12.934737l0-100.513684q0-12.934737 12.934737-12.934737Z" fill="#D7DBE2" p-id="4780"></path></svg>