<?xml version="1.0" standalone="no"?><!DOCTYPE svg PUBLIC "-//W3C//DTD SVG 1.1//EN" "http://www.w3.org/Graphics/SVG/1.1/DTD/svg11.dtd"><svg t="1768961438921" class="icon" viewBox="0 0 1616 1024" version="1.1" xmlns="http://www.w3.org/2000/svg" p-id="4172" xmlns:xlink="http://www.w3.org/1999/xlink" width="315.625" height="200"><path d="M247.376842 271.629474m22.63579 0l1076.547368 0q22.635789 0 22.635789 22.635789l0 81.111579q0 22.635789-22.635789 22.63579l-1076.547368 0q-22.635789 0-22.63579-22.63579l0-81.111579q0-22.635789 22.63579-22.635789Z" fill="#EBEDF1" p-id="4173"></path><path d="M413.103158 625.987368m22.635789 0l910.821053 0q22.635789 0 22.635789 22.63579l0 81.111579q0 22.635789-22.635789 22.635789l-910.821053 0q-22.635789 0-22.635789-22.635789l0-81.111579q0-22.635789 22.635789-22.63579Z" fill="#EBEDF1" p-id="4174"></path><path d="M257.347368 522.24h1102.147369a10.24 10.24 0 0 0 0-20.48H257.347368a10.24 10.24 0 0 0 0 20.48" fill="#00ADFD" p-id="4175"></path><path d="M257.347368 522.24h1102.147369a10.24 10.24 0 0 0 0-20.48H257.347368a10.24 10.24 0 0 0 0 20.48" fill="#00ADFD" p-id="4176"></path></svg>