<?xml version="1.0" standalone="no"?><!DOCTYPE svg PUBLIC "-//W3C//DTD SVG 1.1//EN" "http://www.w3.org/Graphics/SVG/1.1/DTD/svg11.dtd"><svg t="1768961451725" class="icon" viewBox="0 0 1575 1024" version="1.1" xmlns="http://www.w3.org/2000/svg" p-id="4627" xmlns:xlink="http://www.w3.org/1999/xlink" width="307.6171875" height="200"><path d="M100.300644 287.773577m59.865307 0l1254.808324 0q59.865306 0 59.865306 59.865306l0 302.477336q0 59.865306-59.865306 59.865306l-1254.808324 0q-59.865306 0-59.865307-59.865306l0-302.477336q0-59.865306 59.865307-59.865306Z" fill="#F1F2F5" p-id="4628"></path><path d="M232.897046 445.576423m12.340655 0l1084.927391 0q12.340655 0 12.340655 12.340656l0 81.920945q0 12.340655-12.340655 12.340655l-1084.927391 0q-12.340655 0-12.340655-12.340655l0-81.920945q0-12.340655 12.340655-12.340656Z" fill="#D7DBE2" p-id="4629"></path><path d="M1419.437917 703.417347H1391.605801a6.564178 6.564178 0 0 0 0 13.128357h26.256713a6.039044 6.039044 0 0 0 6.301611-6.564179 6.564178 6.564178 0 0 0-6.564178-6.564178z m48.574919-42.535875a50.412889 50.412889 0 0 1-8.664715 21.530505 6.564178 6.564178 0 0 0 10.765252 7.614446 60.915575 60.915575 0 0 0 10.765253-26.256713 6.564178 6.564178 0 1 0-12.86579-1.83797z m0-78.77014v26.256713a6.564178 6.564178 0 0 0 6.564178 6.564179 6.564178 6.564178 0 0 0 6.564179-6.564179v-26.256713a6.826745 6.826745 0 0 0-6.564179-6.564178 6.564178 6.564178 0 0 0-6.039044 6.826745z m0-78.77014v26.256714a6.564178 6.564178 0 0 0 6.564178 6.564178 6.826745 6.826745 0 0 0 6.564179-6.564178v-26.256714a6.564178 6.564178 0 0 0-6.564179-6.564178 6.564178 6.564178 0 0 0-6.039044 6.301611z m0-78.770139v26.256713a6.564178 6.564178 0 0 0 6.564178 6.564178 6.564178 6.564178 0 0 0 6.564179-6.564178v-26.256713a6.564178 6.564178 0 0 0-6.564179-6.564179 6.564178 6.564178 0 0 0-6.039044 5.51391z m0-78.77014v26.256713a6.564178 6.564178 0 0 0 6.564178 6.564179 6.564178 6.564178 0 0 0 6.564179-6.564179v-26.256713a6.564178 6.564178 0 0 0-6.564179-6.564178 6.564178 6.564178 0 0 0-6.039044 4.726208z m-41.748174-49.100054a49.625188 49.625188 0 0 1 21.267938 8.927283 6.564178 6.564178 0 0 0 7.877014-10.502685 61.965843 61.965843 0 0 0-26.256714-11.290387 6.564178 6.564178 0 0 0-7.614446 5.51391 6.564178 6.564178 0 0 0 5.513909 7.351879z m-78.77014 0h26.256714a6.564178 6.564178 0 0 0 0-13.128356h-26.256714a6.564178 6.564178 0 0 0 0 13.128356z m-78.770139 0h26.256713a6.564178 6.564178 0 0 0 0-13.128356h-26.256713a6.564178 6.564178 0 0 0 0 13.128356z m-78.77014 0h26.256713a6.564178 6.564178 0 0 0 0-13.128356h-26.256713a6.564178 6.564178 0 0 0 0 13.128356z m-78.77014 0h26.256714a6.564178 6.564178 0 0 0 0-13.128356h-26.256714a6.564178 6.564178 0 0 0 0 13.128356z m-78.770139 0h26.256713a6.564178 6.564178 0 0 0 0-13.128356h-26.256713a6.564178 6.564178 0 0 0 0 13.128356z m-78.77014 0h26.256713a6.564178 6.564178 0 0 0 0-13.128356h-26.256713a6.564178 6.564178 0 0 0 0 13.128356z m-78.77014 0h26.256714a6.564178 6.564178 0 0 0 0-13.128356h-26.256714a6.564178 6.564178 0 0 0 0 13.128356z m-78.770139 0h26.256713a6.564178 6.564178 0 0 0 0-13.128356h-26.256713a6.564178 6.564178 0 0 0 0 13.128356z m-78.77014 0h26.256713a6.564178 6.564178 0 0 0 0-13.128356h-26.256713a6.564178 6.564178 0 0 0 0 13.128356z m-78.77014 0h26.256714a6.564178 6.564178 0 0 0 0-13.128356h-26.256714a6.564178 6.564178 0 0 0 0 13.128356z m-78.770139 0h26.256713a6.564178 6.564178 0 0 0 0-13.128356h-26.256713a6.564178 6.564178 0 0 0 0 13.128356z m-78.77014 0h26.256713a6.564178 6.564178 0 0 0 0-13.128356h-26.256713a6.564178 6.564178 0 0 0 0 13.128356z m-78.770139 0h26.256713a6.564178 6.564178 0 0 0 0-13.128356H393.850698a6.564178 6.564178 0 0 0 0 13.128356z m-78.77014 0h26.256713a6.564178 6.564178 0 0 0 0-13.128356H315.080559a6.564178 6.564178 0 0 0 0 13.128356z m-78.77014 0h26.256713a6.564178 6.564178 0 0 0 0-13.128356H236.310419a6.564178 6.564178 0 1 0 0 13.128356z m-78.770139 0H183.796993a6.564178 6.564178 0 1 0 0-13.128356H157.540279a6.564178 6.564178 0 1 0 0 13.128356z m-58.552471 39.910204a50.675457 50.675457 0 0 1 8.927283-21.530504 6.564178 6.564178 0 0 0-1.575403-9.18985 6.564178 6.564178 0 0 0-9.18985 1.575403 61.703276 61.703276 0 0 0-11.027819 26.256713 6.564178 6.564178 0 0 0 5.513909 7.614447 6.564178 6.564178 0 0 0 7.35188-5.51391z m0 78.77014v-26.256713a6.564178 6.564178 0 0 0-6.564178-6.564178 6.564178 6.564178 0 0 0-6.564179 6.564178v26.256713a6.564178 6.564178 0 0 0 6.564179 6.564178 6.564178 6.564178 0 0 0 6.039044-7.089312z m0 78.77014v-26.256713a6.564178 6.564178 0 0 0-6.564178-6.564179 6.564178 6.564178 0 0 0-6.564179 6.564179v26.256713a6.564178 6.564178 0 0 0 6.564179 6.564178 6.564178 6.564178 0 0 0 6.039044-6.301611z m0 78.770139v-26.256713a6.564178 6.564178 0 0 0-6.564178-6.564178 6.564178 6.564178 0 0 0-6.564179 6.564178v26.256713a6.564178 6.564178 0 0 0 6.564179 6.564179 6.564178 6.564178 0 0 0 6.039044-5.51391z m0 78.77014v-26.256713a6.564178 6.564178 0 0 0-6.564178-6.564178 6.564178 6.564178 0 0 0-6.564179 6.564178v26.256713a6.564178 6.564178 0 0 0 6.564179 6.564178 6.564178 6.564178 0 0 0 6.039044-4.988775z m41.485607 49.625188a46.999517 46.999517 0 0 1-21.267938-9.18985 6.564178 6.564178 0 0 0-9.189849 1.575403 6.301611 6.301611 0 0 0 0 8.927283 62.490977 62.490977 0 0 0 26.256713 11.552954 6.564178 6.564178 0 0 0 7.614447-5.51391 6.564178 6.564178 0 0 0-5.51391-7.35188z m78.77014 0h-26.256714a6.564178 6.564178 0 0 0 0 13.128357h26.256714a6.564178 6.564178 0 0 0 0-13.128357z m78.770139 0h-26.256713a6.564178 6.564178 0 1 0 0 13.128357h26.256713a6.564178 6.564178 0 1 0 0-13.128357z m78.77014 0h-26.256713a6.564178 6.564178 0 0 0 0 13.128357h26.256713a6.564178 6.564178 0 0 0 0-13.128357z m78.77014 0h-26.256714a6.564178 6.564178 0 0 0 0 13.128357h26.256714a6.564178 6.564178 0 0 0 0-13.128357z m78.770139 0h-26.256713a6.564178 6.564178 0 0 0 0 13.128357h26.256713a6.564178 6.564178 0 1 0 0-13.128357z m78.77014 0h-26.256713a6.564178 6.564178 0 1 0 0 13.128357h26.256713a6.564178 6.564178 0 1 0 0-13.128357z m78.77014 0h-26.256714a6.564178 6.564178 0 0 0 0 13.128357h26.256714a6.564178 6.564178 0 1 0 0-13.128357z m78.770139 0h-26.256713a6.564178 6.564178 0 0 0 0 13.128357h26.256713a6.564178 6.564178 0 0 0 0-13.128357z m78.77014 0h-26.256713a6.564178 6.564178 0 1 0 0 13.128357h26.256713a6.564178 6.564178 0 0 0 0-13.128357z m78.77014 0h-26.256714a6.564178 6.564178 0 0 0 0 13.128357h26.256714a6.564178 6.564178 0 0 0 0-13.128357z m78.770139 0h-26.256713a6.564178 6.564178 0 0 0 0 13.128357h26.256713a6.564178 6.564178 0 0 0 0-13.128357z m78.77014 0h-26.256713a6.564178 6.564178 0 0 0 0 13.128357h26.256713a6.564178 6.564178 0 0 0 0-13.128357z m78.770139 0H1155.295382a6.564178 6.564178 0 0 0 0 13.128357h26.256713a6.564178 6.564178 0 0 0 0-13.128357z m78.77014 0H1234.065521a6.564178 6.564178 0 0 0 0 13.128357h26.256713a6.564178 6.564178 0 0 0 0-13.128357z m78.77014 0H1312.835661a6.564178 6.564178 0 0 0 0 13.128357h26.256713a6.564178 6.564178 0 0 0 0-13.128357z" fill="#00ADFD" p-id="4630"></path></svg>