<?xml version="1.0" standalone="no"?><!DOCTYPE svg PUBLIC "-//W3C//DTD SVG 1.1//EN" "http://www.w3.org/Graphics/SVG/1.1/DTD/svg11.dtd"><svg t="1768961477981" class="icon" viewBox="0 0 1616 1024" version="1.1" xmlns="http://www.w3.org/2000/svg" p-id="5079" xmlns:xlink="http://www.w3.org/1999/xlink" width="315.625" height="200"><path d="M808.421053 512m-328.218948 0a328.218947 328.218947 0 1 0 656.437895 0 328.218947 328.218947 0 1 0-656.437895 0Z" fill="#00ADFD" p-id="5080"></path><path d="M808.421053 512a71.68 71.68 0 1 1 71.410526-71.68A71.949474 71.949474 0 0 1 808.421053 512z m134.736842 122.88a21.557895 21.557895 0 0 1-21.288421 20.210526h-227.43579a21.557895 21.557895 0 0 1-21.288421-20.210526v-6.197895a101.861053 101.861053 0 0 1 101.861053-101.591579h66.829473A101.322105 101.322105 0 0 1 943.157895 628.682105z" fill="#FFFFFF" p-id="5081"></path></svg>