<?xml version="1.0" standalone="no"?><!DOCTYPE svg PUBLIC "-//W3C//DTD SVG 1.1//EN" "http://www.w3.org/Graphics/SVG/1.1/DTD/svg11.dtd"><svg t="1768961442139" class="icon" viewBox="0 0 1547 1024" version="1.1" xmlns="http://www.w3.org/2000/svg" p-id="4323" xmlns:xlink="http://www.w3.org/1999/xlink" width="302.1484375" height="200"><path d="M441.496692 158.856286m21.662221 0l814.138467 0q21.662221 0 21.662221 21.662221l0 77.622958q0 21.662221-21.662221 21.662221l-814.138467 0q-21.662221 0-21.662221-21.662221l0-77.622958q0-21.662221 21.662221-21.662221Z" fill="#00ADFD" p-id="4324"></path><path d="M441.496692 433.760184m21.662221 0l548.002611 0q21.662221 0 21.662221 21.662221l0 77.622958q0 21.662221-21.662221 21.662221l-548.002611 0q-21.662221 0-21.662221-21.662221l0-77.622958q0-21.662221 21.662221-21.662221Z" fill="#EBEDF1" p-id="4325"></path><path d="M441.496692 700.153924m21.662221 0l814.138467 0q21.662221 0 21.662221 21.662221l0 77.622958q0 21.662221-21.662221 21.662221l-814.138467 0q-21.662221 0-21.662221-21.662221l0-77.622958q0-21.662221 21.662221-21.662221Z" fill="#EBEDF1" p-id="4326"></path><path d="M285.992892 219.201044m-37.651003 0a37.651003 37.651003 0 1 0 75.302006 0 37.651003 37.651003 0 1 0-75.302006 0Z" fill="#00ADFD" p-id="4327"></path></svg>