<?xml version="1.0" standalone="no"?><!DOCTYPE svg PUBLIC "-//W3C//DTD SVG 1.1//EN" "http://www.w3.org/Graphics/SVG/1.1/DTD/svg11.dtd"><svg t="1768961483879" class="icon" viewBox="0 0 1575 1024" version="1.1" xmlns="http://www.w3.org/2000/svg" p-id="5378" xmlns:xlink="http://www.w3.org/1999/xlink" width="307.6171875" height="200"><path d="M100.300644 287.773577m59.865307 0l1254.808324 0q59.865306 0 59.865306 59.865306l0 302.477336q0 59.865306-59.865306 59.865306l-1254.808324 0q-59.865306 0-59.865307-59.865306l0-302.477336q0-59.865306 59.865307-59.865306Z" fill="#F1F2F5" p-id="5379"></path><path d="M467.106928 437.174275m12.603223 0l693.439796 0q12.603222 0 12.603222 12.603222l0 97.937541q0 12.603222-12.603222 12.603222l-693.439796 0q-12.603222 0-12.603223-12.603222l0-97.937541q0-12.603222 12.603223-12.603222Z" fill="#D7DBE2" p-id="5380"></path><path d="M297.751128 424.83362A74.043931 74.043931 0 1 0 371.795059 498.877551a74.306498 74.306498 0 0 0-74.043931-74.043931z m9.977551 29.670086c7.089313 0 9.18985 3.938507 9.18985 8.927282a11.815521 11.815521 0 0 1-12.86579 11.290387c-6.826745 0-9.977551-3.150806-9.977551-9.18985a12.078088 12.078088 0 0 1 13.653491-11.027819zM288.823845 546.139635c-4.726208 0-8.402148-2.888238-4.988775-16.279162l4.988775-23.105908v-5.251343a30.720354 30.720354 0 0 0-11.552953 5.251343l-2.625672-4.201074a66.429484 66.429484 0 0 1 31.770623-16.016595c4.988776 0 6.039044 6.039044 3.413373 14.966326l-6.301611 24.418744v5.776477A23.893609 23.893609 0 0 0 315.080559 525.134264l2.888238 3.67594a54.351396 54.351396 0 0 1-29.144952 17.329431z" fill="#00ADFD" p-id="5381"></path></svg>