<?xml version="1.0" standalone="no"?><!DOCTYPE svg PUBLIC "-//W3C//DTD SVG 1.1//EN" "http://www.w3.org/Graphics/SVG/1.1/DTD/svg11.dtd"><svg t="1768961434894" class="icon" viewBox="0 0 1497 1024" version="1.1" xmlns="http://www.w3.org/2000/svg" p-id="4020" xmlns:xlink="http://www.w3.org/1999/xlink" width="292.3828125" height="200"><path d="M229.084895 83.099423m46.91499 0l945.037581 0q46.914989 0 46.914989 46.914989l0 688.00333q0 46.914989-46.914989 46.91499l-945.037581 0q-46.914989 0-46.91499-46.91499l0-688.00333q0-46.914989 46.91499-46.914989Z" fill="#F1F2F5" p-id="4021"></path><path d="M275.999885 83.099423h945.287129a46.914989 46.914989 0 0 1 46.914989 46.914989v57.395998H229.084895v-57.395998a46.914989 46.914989 0 0 1 46.91499-46.914989z" fill="#00ADFD" p-id="4022"></path><path d="M277.497172 235.573139m28.448451 0l881.15334 0q28.448451 0 28.448451 28.448451l0 46.166346q0 28.448451-28.448451 28.448451l-881.15334 0q-28.448451 0-28.448451-28.448451l0-46.166346q0-28.448451 28.448451-28.448451Z" fill="#E3E6EA" p-id="4023"></path><path d="M277.497172 712.209468m28.448451 0l881.15334 0q28.448451 0 28.448451 28.448451l0 45.916798q0 28.448451-28.448451 28.448451l-881.15334 0q-28.448451 0-28.448451-28.448451l0-45.916798q0-28.448451 28.448451-28.448451Z" fill="#E3E6EA" p-id="4024"></path><path d="M277.497172 386.050472m28.448451 0l881.15334 0q28.448451 0 28.448451 28.448451l0 223.095748q0 28.448451-28.448451 28.448451l-881.15334 0q-28.448451 0-28.448451-28.448451l0-223.095748q0-28.448451 28.448451-28.448451Z" fill="#E3E6EA" p-id="4025"></path></svg>