<?xml version="1.0" standalone="no"?><!DOCTYPE svg PUBLIC "-//W3C//DTD SVG 1.1//EN" "http://www.w3.org/Graphics/SVG/1.1/DTD/svg11.dtd"><svg t="1768961446776" class="icon" viewBox="0 0 1501 1024" version="1.1" xmlns="http://www.w3.org/2000/svg" p-id="4474" xmlns:xlink="http://www.w3.org/1999/xlink" width="293.1640625" height="200"><path d="M229.740341 78.081685m47.04922 0l947.741473 0q47.04922 0 47.04922 47.04922l0 689.971809q0 47.04922-47.04922 47.04922l-947.741473 0q-47.04922 0-47.04922-47.04922l0-689.971809q0-47.04922 47.04922-47.04922Z" fill="#F1F2F5" p-id="4475"></path><path d="M630.159236 197.957091m11.762305 0l217.978037 0q11.762305 0 11.762305 11.762305l0 67.570689q0 11.762305-11.762305 11.762305l-217.978037 0q-11.762305 0-11.762305-11.762305l0-67.570689q0-11.762305 11.762305-11.762305Z" fill="#D7DBE2" p-id="4476"></path><path d="M362.128838 373.39062m11.762305 0l753.538309 0q11.762305 0 11.762305 11.762305l0 46.548696q0 11.762305-11.762305 11.762305l-753.538309 0q-11.762305 0-11.762305-11.762305l0-46.548696q0-11.762305 11.762305-11.762305Z" fill="#D7DBE2" p-id="4477"></path><path d="M511.034615 507.53095m11.762305 0l455.977017 0q11.762305 0 11.762305 11.762305l0 46.548696q0 11.762305-11.762305 11.762305l-455.977017 0q-11.762305 0-11.762305-11.762305l0-46.548696q0-11.762305 11.762305-11.762305Z" fill="#D7DBE2" p-id="4478"></path><path d="M506.529902 676.707933m15.766494 0l193.452379 0q15.766494 0 15.766494 15.766494l0 85.339277q0 15.766494-15.766494 15.766494l-193.452379 0q-15.766494 0-15.766494-15.766494l0-85.339277q0-15.766494 15.766494-15.766494Z" fill="#00ADFD" p-id="4479"></path><path d="M769.805326 676.707933m15.766494 0l193.452379 0q15.766494 0 15.766494 15.766494l0 85.339277q0 15.766494-15.766494 15.766494l-193.452379 0q-15.766494 0-15.766494-15.766494l0-85.339277q0-15.766494 15.766494-15.766494Z" fill="#FFFFFF" p-id="4480"></path></svg>